<svg viewBox="0 0 130 26" fill="none" xmlns="http://www.w3.org/2000/svg"><path d="M112.98.36h3.61l4.18 17.3 4.16-17.3h3.19l-5.82 25.3h-3.08l-6.24-25.3Zm-1.46 0h3.44l.54 16.68v8.61h-3.98v-25.29Zm15.02 0h3.46v25.3h-3.96v-8.62l.5-16.68Zm-27.61 0 3.12 11.4 3.1-11.4h4.47l-5.5 16.1v9.2h-4.15v-9.2l-5.5-16.1h4.46Zm-4.99 12.01v10.42c-.3.38-.72.82-1.28 1.33a7.77 7.77 0 0 1-5.44 1.88 6.4 6.4 0 0 1-5.47-2.66 9.89 9.89 0 0 1-1.5-3.37 19.58 19.58 0 0 1-.52-4.8v-4.31c0-1.83.16-3.43.5-4.78.33-1.37.82-2.5 1.45-3.4.64-.9 1.4-1.58 2.28-2.02a6.7 6.7 0 0 1 3-.66c1.54 0 2.8.32 3.79.96.99.63 1.74 1.58 2.25 2.83s.82 2.78.92 4.6h-3.97a9 9 0 0 0-.44-2.5 2.44 2.44 0 0 0-.91-1.29c-.4-.26-.9-.4-1.54-.4a2.7 2.7 0 0 0-1.41.37c-.4.23-.74.61-1.02 1.14a6.9 6.9 0 0 0-.6 2.05c-.13.84-.2 1.86-.2 3.06v4.34c0 1.2.08 2.21.23 3.06a7 7 0 0 0 .66 2.07c.3.53.67.92 1.12 1.16.46.23 1 .35 1.62.35a3.06 3.06 0 0 0 1.91-.6l.46-.34v-4.66h-2.93v-3.83h7.04Zm-30.83-12.01h6.56c1.37 0 2.54.3 3.5.87a5.6 5.6 0 0 1 2.22 2.57c.52 1.14.77 2.54.77 4.2a12 12 0 0 1-.44 3.52 6.7 6.7 0 0 1-1.28 2.4 6.33 6.33 0 0 1-1.99 1.54l-1.25.92h-5.32l-.02-4.22h3.7c.56 0 1.03-.15 1.4-.45.37-.32.64-.75.82-1.3.19-.57.28-1.23.28-1.99 0-.8-.08-1.48-.25-2.05a2.56 2.56 0 0 0-.77-1.32c-.35-.3-.8-.46-1.37-.46h-2.44v21.06h-4.12v-25.29Zm9.29 25.3-3.75-11.28 4.31-.02 3.84 11.05v.24h-4.4Zm-12.71-4.21v4.2h-8.9v-4.2h8.9Zm-7.62-21.09v25.3h-4.12v-25.3h4.12Zm6.42 10.25v4.08h-7.7v-4.08h7.7Zm1.17-10.25v4.23h-8.87v-4.23h8.87Zm-20.09 16.38h-4.19v-4.22h4.2c.57 0 1.05-.16 1.41-.48.38-.33.65-.77.82-1.34.16-.58.25-1.23.25-1.95 0-.73-.09-1.4-.27-2.03a3.57 3.57 0 0 0-.8-1.54 1.8 1.8 0 0 0-1.42-.6h-2.86v21.07h-4.1v-25.29h6.96a5.9 5.9 0 0 1 3.56 1.08c.99.72 1.75 1.7 2.27 2.97.54 1.25.8 2.69.8 4.3 0 1.64-.26 3.06-.8 4.26a6.27 6.27 0 0 1-2.27 2.78c-1 .66-2.18 1-3.56 1Zm-14.22-16.38h4.1v17.37c0 1.95-.29 3.53-.87 4.76a5.75 5.75 0 0 1-2.37 2.68 7.09 7.09 0 0 1-3.47.83 7.2 7.2 0 0 1-3.5-.83 5.72 5.72 0 0 1-2.4-2.68 11.5 11.5 0 0 1-.83-4.76v-17.37h4.1v17.37c0 1.1.1 1.95.3 2.54.2.59.5 1 .88 1.21.4.21.88.32 1.45.32.58 0 1.06-.1 1.43-.32.38-.22.67-.62.87-1.21.2-.6.31-1.44.31-2.54v-17.37Zm-16.08 18.64c0-.45-.03-.86-.1-1.23a2.5 2.5 0 0 0-.42-1.03c-.2-.31-.5-.62-.9-.93-.4-.32-.92-.64-1.55-.98-.76-.4-1.5-.8-2.21-1.25a10.8 10.8 0 0 1-1.93-1.56 6.72 6.72 0 0 1-1.36-2.09 7.56 7.56 0 0 1-.5-2.84c0-1.07.16-2.04.47-2.9a6.39 6.39 0 0 1 3.39-3.67c.79-.33 1.66-.5 2.63-.5 1.3 0 2.44.33 3.4 1 .96.68 1.7 1.6 2.23 2.77a9.6 9.6 0 0 1 .8 4.03h-4.1a6.4 6.4 0 0 0-.25-1.9 2.66 2.66 0 0 0-.78-1.3 2.01 2.01 0 0 0-1.37-.47 2.07 2.07 0 0 0-2.07 1.46c-.16.44-.24.94-.24 1.5 0 .41.08.79.24 1.12.17.33.4.62.69.89.29.25.63.5 1.03.75.4.24.84.48 1.32.7.92.46 1.74.96 2.46 1.5.7.53 1.3 1.14 1.78 1.8.48.67.84 1.41 1.08 2.25a10.16 10.16 0 0 1-.08 5.73 5.76 5.76 0 0 1-3.32 3.65 7.41 7.41 0 0 1-5.33.02 6.32 6.32 0 0 1-3.73-4.1c-.37-1.06-.55-2.3-.55-3.74h4.12c0 .76.06 1.42.18 1.96s.3.96.56 1.29c.26.31.56.55.93.71.37.15.8.23 1.28.23.54 0 .97-.13 1.3-.39.32-.25.55-.6.7-1.02.13-.43.2-.92.2-1.46Z" fill="#fff"/></svg>