<svg viewBox="0 0 15 15" fill="none" xmlns="http://www.w3.org/2000/svg"><path d="M8.85.56c-.44 0-.86.22-1.13.55a2.7 2.7 0 0 0-.52 1.14 9.43 9.43 0 0 0-.24 2.1 7.32 7.32 0 0 0-3.33 1.02 2 2 0 0 0-1.28-.5c-.5 0-.98.23-1.33.67-.68.85-.6 2.24.18 3.06-.05.26-.08.52-.08.78 0 2.8 2.86 5.06 6.38 5.06 3.53 0 6.38-2.26 6.38-5.06 0-.26-.03-.52-.08-.78.78-.82.86-2.21.18-3.06a1.7 1.7 0 0 0-1.33-.67 2 2 0 0 0-1.28.5 7.31 7.31 0 0 0-3.31-1.03 8.4 8.4 0 0 1 .18-1.75c.08-.3.17-.52.27-.65.1-.12.17-.17.34-.17.36 0 .4.12.63.4.1.15.23.32.43.5.2.17.5.32.83.32v-1.22c-.09 0-.1 0-.17-.05-.06-.06-.14-.18-.27-.35-.25-.32-.73-.81-1.45-.81Zm3.51.11c-.84 0-1.52.77-1.52 1.71 0 .95.68 1.71 1.52 1.71s1.52-.76 1.52-1.7c0-.95-.68-1.72-1.52-1.72Zm0 .6c.54 0 .98.5.98 1.11 0 .61-.44 1.1-.98 1.1s-.98-.49-.98-1.1c0-.6.44-1.1.98-1.1Zm-4.86 4.02c3 0 5.52 1.88 5.52 4.1 0 2.21-2.53 4.08-5.52 4.08-3 0-5.52-1.87-5.52-4.09 0-2.21 2.53-4.09 5.52-4.09Zm-5.13.55c.15 0 .3.05.45.12-.54.46-.97 1-1.26 1.6-.2-.47-.15-1.06.1-1.37a.88.88 0 0 1 .7-.35Zm10.26 0c.28 0 .53.12.71.35.25.3.3.9.1 1.37a4.94 4.94 0 0 0-1.26-1.6c.15-.07.3-.11.45-.12Zm-7.3 1.53c-.53 0-.97.5-.97 1.1 0 .6.44 1.1.98 1.1s.98-.5.98-1.1c0-.6-.44-1.1-.98-1.1Zm4.33 0c-.54 0-.98.5-.98 1.1 0 .6.44 1.1.98 1.1s.98-.5.98-1.1c0-.6-.44-1.1-.98-1.1Zm-4.84 3.75c.34.8 1.4 1.57 2.68 1.57 1.28 0 2.36-.77 2.7-1.57-.62.45-1.6.76-2.7.76s-2.06-.31-2.68-.77Z" fill="#030A1A"/></svg>