<svg viewBox="0 0 10 17" fill="none" xmlns="http://www.w3.org/2000/svg"><path d="M4.68 2.89c.9 0 1.63.75 1.63 1.68 0 .93-.73 1.68-1.63 1.68-.9 0-1.63-.75-1.63-1.68 0-.93.73-1.68 1.63-1.68Zm0 5.74a4 4 0 0 0 3.94-4.06 4 4 0 0 0-3.94-4.06 4 4 0 0 0-3.93 4.06 4 4 0 0 0 3.93 4.06Zm1.6 3.31a7.3 7.3 0 0 0 2.28-.97c.53-.35.7-1.09.36-1.64a1.13 1.13 0 0 0-1.6-.38 4.87 4.87 0 0 1-5.29 0 1.13 1.13 0 0 0-1.59.38c-.34.55-.17 1.29.36 1.64a7.3 7.3 0 0 0 2.29.97l-2.2 2.27a1.22 1.22 0 0 0 0 1.68 1.14 1.14 0 0 0 1.63 0l2.16-2.23 2.16 2.23c.45.47 1.18.47 1.63 0 .45-.46.45-1.21 0-1.68l-2.2-2.27Z" fill="#030A1A"/></svg>