<svg viewBox="0 0 13 8" fill="none" xmlns="http://www.w3.org/2000/svg"><path d="M7.72 6.05c.45-.14 1.01.95 1.62 1.36.45.32.8.25.8.25l1.6-.02s.84-.06.45-.72c-.04-.06-.24-.5-1.2-1.4-1-.95-.87-.8.34-2.43.74-1 1.04-1.6.94-1.87-.08-.25-.63-.18-.63-.18l-1.8.01c-.19 0-.34.06-.4.24 0 0-.3.77-.67 1.43-.8 1.38-1.13 1.45-1.26 1.37-.31-.2-.23-.8-.23-1.24 0-1.34.2-1.9-.4-2.04a3.1 3.1 0 0 0-.84-.09c-.65 0-1.2 0-1.5.16-.2.1-.37.33-.27.34.12.02.39.07.53.27.19.26.18.83.18.83s.11 1.58-.25 1.77c-.24.14-.58-.14-1.3-1.4-.36-.63-.64-1.35-.64-1.35s-.05-.13-.15-.2a.67.67 0 0 0-.28-.11h-1.72s-.26.02-.35.13c-.08.1 0 .3 0 .3s1.34 3.2 2.86 4.8c1.4 1.47 3 1.38 3 1.38h.71s.22-.03.33-.15c.1-.1.1-.32.1-.32s-.01-.97.43-1.12Z" fill="#030A1A"/></svg>